<svg width="493" height="114" viewBox="0 0 493 114" fill="none" xmlns="http://www.w3.org/2000/svg">
<path d="M29.8931 113.18C28.9598 113.18 27.7465 113.04 26.2531 112.76C24.7598 112.48 23.2198 111.92 21.6331 111.08C20.1398 110.333 18.8798 109.12 17.8531 107.44C16.8265 105.76 16.3131 103.52 16.3131 100.72C16.3131 98.3867 16.7798 95.3533 17.7131 91.62C18.6465 87.7933 20.2331 82.24 22.4731 74.96C24.1531 69.4533 25.7865 64.04 27.3731 58.72C29.0531 53.3067 30.4065 47.7067 31.4331 41.92C32.5531 36.1333 33.1131 29.9733 33.1131 23.44C33.1131 17.7467 32.5065 13.4067 31.2931 10.42C30.1731 7.34 27.9331 5.8 24.5731 5.8C21.5865 5.8 19.0665 6.87333 17.0131 9.02C15.0531 11.0733 13.5598 13.6867 12.5331 16.86C11.5998 19.94 11.1331 23.1133 11.1331 26.38C11.1331 30.4867 11.8331 33.8933 13.2331 36.6C8.65979 36.6 5.34646 35.5267 3.29313 33.38C1.23979 31.2333 0.213125 28.5733 0.213125 25.4C0.213125 22.6 0.913125 19.7067 2.31313 16.72C3.71313 13.7333 5.62646 11.0267 8.05313 8.6C10.5731 6.08 13.4665 4.07333 16.7331 2.58C19.9998 0.99333 23.4998 0.199996 27.2331 0.199996C33.5798 0.199996 38.3865 2.53333 41.6531 7.2C45.0131 11.8667 46.6931 18.4933 46.6931 27.08C46.6931 33.52 45.8065 40.24 44.0331 47.24C42.3531 54.1467 40.2065 61.7067 37.5931 69.92C36.6598 72.9067 35.5398 76.22 34.2331 79.86C33.0198 83.4067 31.8998 87.0933 30.8731 90.92C29.9398 94.6533 29.4731 98.3867 29.4731 102.12C29.4731 103.893 29.6598 105.107 30.0331 105.76C30.4998 106.507 31.3398 106.88 32.5531 106.88C35.0731 106.88 37.7331 105.807 40.5331 103.66C43.4265 101.513 46.3198 98.62 49.2131 94.98C52.1065 91.34 54.8598 87.28 57.4731 82.8C60.1798 78.32 62.6531 73.7467 64.8931 69.08C67.1331 64.32 68.9998 59.84 70.4931 55.64C71.9865 51.3467 72.9665 47.6133 73.4331 44.44C76.9798 44.44 79.7331 45.42 81.6931 47.38C83.6531 49.34 84.6331 51.2067 84.6331 52.98C84.6331 53.9133 84.2131 55.5 83.3731 57.74C82.6265 59.98 81.3198 63.2933 79.4531 67.68C77.9598 71.2267 76.4198 75.0067 74.8331 79.02C73.2465 82.94 71.8931 86.86 70.7731 90.78C69.7465 94.6067 69.2331 98.2 69.2331 101.56C69.2331 103.427 69.4665 104.78 69.9331 105.62C70.4931 106.46 71.4731 106.88 72.8731 106.88C75.4865 106.88 78.4731 105.573 81.8331 102.96C85.2865 100.44 88.8331 96.9867 92.4731 92.6C96.1131 88.12 99.6598 83.1267 103.113 77.62C106.566 72.02 109.693 66.2333 112.493 60.26C115.293 54.2867 117.486 48.4067 119.073 42.62C120.753 36.8333 121.593 31.56 121.593 26.8C121.593 21.6667 120.66 18.0267 118.793 15.88C117.02 13.7333 114.78 12.1933 112.073 11.26C113.753 8.55333 115.526 6.59333 117.393 5.38C119.353 4.07333 121.08 3.42 122.573 3.42C124.72 3.42 126.913 4.81999 129.153 7.61999C131.486 10.3267 132.653 14.62 132.653 20.5C132.653 25.4467 131.673 31.14 129.713 37.58C127.846 44.02 125.233 50.74 121.873 57.74C118.606 64.6467 114.826 71.4133 110.533 78.04C106.333 84.5733 101.806 90.5 96.9531 95.82C92.1931 101.14 87.3865 105.34 82.5331 108.42C77.6798 111.593 73.0598 113.18 68.6731 113.18C65.0331 113.18 61.9998 112.06 59.5731 109.82C57.2398 107.673 56.0731 104.78 56.0731 101.14C56.0731 100.02 56.2131 98.8533 56.4931 97.64C56.7731 96.4267 57.0998 95.2133 57.4731 94C52.8998 99.7867 48.2798 104.407 43.6131 107.86C39.0398 111.407 34.4665 113.18 29.8931 113.18ZM141.849 107.16C135.876 107.16 131.256 105.527 127.989 102.26C124.816 99.0867 123.229 95.0733 123.229 90.22C123.229 86.1133 124.256 81.7733 126.309 77.2C128.456 72.5333 131.303 68.1933 134.849 64.18C138.396 60.0733 142.316 56.76 146.609 54.24C150.903 51.72 155.196 50.46 159.489 50.46C161.916 50.46 164.203 51.1133 166.349 52.42C168.589 53.6333 169.709 56.1067 169.709 59.84C169.709 63.3867 168.683 66.7 166.629 69.78C164.576 72.86 161.823 75.6133 158.369 78.04C154.916 80.4667 151.089 82.4733 146.889 84.06C142.783 85.5533 138.629 86.5333 134.429 87C134.336 87.3733 134.243 87.7933 134.149 88.26C134.149 88.6333 134.149 89.2867 134.149 90.22C134.149 90.6867 134.196 91.5267 134.289 92.74C134.476 93.86 134.896 95.0733 135.549 96.38C136.203 97.6867 137.276 98.8067 138.769 99.74C140.263 100.673 142.316 101.14 144.929 101.14C148.849 101.14 152.769 100.067 156.689 97.92C160.703 95.68 164.436 92.74 167.889 89.1C171.436 85.46 174.376 81.4 176.709 76.92L179.509 79.16C176.989 84.76 173.723 89.66 169.709 93.86C165.789 98.06 161.403 101.327 156.549 103.66C151.789 105.993 146.889 107.16 141.849 107.16ZM135.969 81.82C138.396 81.54 141.103 80.7 144.089 79.3C147.076 77.9 149.923 76.1267 152.629 73.98C155.429 71.8333 157.716 69.5 159.489 66.98C161.263 64.3667 162.149 61.7533 162.149 59.14C162.149 58.1133 161.963 57.4133 161.589 57.04C161.216 56.6667 160.609 56.48 159.769 56.48C157.623 56.48 155.383 57.2733 153.049 58.86C150.716 60.3533 148.429 62.36 146.189 64.88C143.949 67.3067 141.943 70.0133 140.169 73C138.396 75.9867 136.996 78.9267 135.969 81.82ZM196.424 113.18C190.731 113.18 186.438 112.247 183.544 110.38C180.651 108.513 179.158 105.433 179.064 101.14C179.064 100.207 179.578 99.74 180.604 99.74C181.444 99.74 182.704 99.9733 184.384 100.44C186.158 100.813 189.471 101 194.324 101C202.538 101 210.098 100.16 217.004 98.48C223.911 96.7067 229.884 94.3733 234.924 91.48C240.058 88.4933 244.024 85.18 246.824 81.54C249.624 77.8067 251.024 73.9333 251.024 69.92C251.024 66.28 249.904 63.3867 247.664 61.24C245.518 59 242.624 57.32 238.984 56.2C235.438 54.9867 231.518 54.1933 227.224 53.82C223.024 53.4467 218.871 53.26 214.764 53.26C212.991 53.26 211.218 53.3067 209.444 53.4C207.671 53.4 205.991 53.4 204.404 53.4C202.351 60.4933 200.344 67.82 198.384 75.38C196.424 82.94 194.371 90.36 192.224 97.64C189.424 97.64 186.998 96.8933 184.944 95.4C182.891 93.9067 181.864 92.0867 181.864 89.94C181.864 89.1 182.004 88.0267 182.284 86.72C182.658 85.32 183.171 83.6867 183.824 81.82C184.384 80.0467 185.318 77.1067 186.624 73C188.024 68.8933 189.658 64.04 191.524 58.44C193.391 52.84 195.444 46.96 197.684 40.8C200.018 34.5467 202.398 28.4333 204.824 22.46C207.344 16.4867 209.818 11.12 212.244 6.35999C208.511 7.19999 205.431 8.17999 203.004 9.3C200.578 10.42 198.664 11.4 197.264 12.24C195.864 13.08 194.791 13.5 194.044 13.5C193.484 13.5 192.738 13.1733 191.804 12.52C190.964 11.8667 190.171 11.12 189.424 10.28C188.771 9.44 188.444 8.69333 188.444 8.04C193.484 5.98666 198.711 4.16666 204.124 2.58C209.538 0.99333 216.071 0.199996 223.724 0.199996C227.084 0.199996 230.771 0.479995 234.784 1.03999C238.798 1.50666 242.624 2.53333 246.264 4.12C249.904 5.61333 252.891 7.89999 255.224 10.98C257.651 13.9667 258.864 17.98 258.864 23.02C258.864 27.0333 257.978 30.5333 256.204 33.52C254.524 36.4133 252.238 38.9333 249.344 41.08C246.451 43.1333 243.278 44.86 239.824 46.26C236.371 47.5667 232.964 48.64 229.604 49.48C237.351 50.5067 243.418 52.28 247.804 54.8C252.191 57.32 255.271 60.12 257.044 63.2C258.818 66.28 259.704 69.22 259.704 72.02C259.704 77.5267 258.258 82.4733 255.364 86.86C252.471 91.2467 248.644 95.0733 243.884 98.34C239.218 101.607 234.038 104.313 228.344 106.46C222.744 108.7 217.144 110.38 211.544 111.5C205.944 112.62 200.904 113.18 196.424 113.18ZM205.804 48.08C211.031 47.8933 216.164 47.2867 221.204 46.26C226.244 45.2333 230.771 43.74 234.784 41.78C238.891 39.7267 242.158 37.1133 244.584 33.94C247.011 30.6733 248.224 26.66 248.224 21.9C248.224 17.42 247.011 13.9667 244.584 11.54C242.158 9.11333 238.984 7.43333 235.064 6.5C231.144 5.56666 226.944 5.09999 222.464 5.09999H221.904C218.731 11.3533 215.838 18.1667 213.224 25.54C210.611 32.82 208.138 40.3333 205.804 48.08ZM275.019 105.2C271.846 105.2 269.232 103.753 267.179 100.86C265.219 97.8733 264.239 94.4667 264.239 90.64C264.239 88.0267 264.659 84.9467 265.499 81.4C266.339 77.8533 267.412 74.4 268.719 71.04C270.119 67.68 271.519 64.88 272.919 62.64C274.412 60.4 275.766 59.28 276.979 59.28C277.632 59.28 278.612 59.6533 279.919 60.4C281.319 61.0533 282.532 61.8933 283.559 62.92C282.532 64.4133 281.272 66.7 279.779 69.78C278.379 72.86 277.119 76.1733 275.999 79.72C274.879 83.2667 274.319 86.4867 274.319 89.38C274.319 89.7533 274.366 90.64 274.459 92.04C274.646 93.44 275.019 94.7467 275.579 95.96C276.139 97.1733 277.119 97.78 278.519 97.78C280.106 97.78 281.786 96.94 283.559 95.26C285.426 93.4867 287.292 91.2467 289.159 88.54C291.119 85.74 292.986 82.7533 294.759 79.58C296.626 76.4067 298.259 73.3267 299.659 70.34C301.152 67.3533 302.366 64.8333 303.299 62.78C304.139 62.8733 305.212 63.1067 306.519 63.48C307.919 63.8533 309.132 64.3667 310.159 65.02C311.186 65.58 311.699 66.42 311.699 67.54C311.699 67.82 311.232 68.9867 310.299 71.04C309.459 73 308.432 75.38 307.219 78.18C306.099 80.98 305.072 83.8733 304.139 86.86C303.299 89.7533 302.879 92.32 302.879 94.56C302.879 95.8667 303.112 97.0333 303.579 98.06C304.139 98.9933 305.166 99.46 306.659 99.46C308.619 99.46 310.952 98.5733 313.659 96.8C316.366 95.0267 319.166 92.46 322.059 89.1C324.952 85.74 327.519 81.7267 329.759 77.06L331.859 78.74C329.806 83.78 327.146 88.3067 323.879 92.32C320.612 96.3333 317.112 99.46 313.379 101.7C309.646 104.033 306.006 105.2 302.459 105.2C299.752 105.2 297.699 104.547 296.299 103.24C294.992 102.027 294.106 100.44 293.639 98.48C293.172 96.4267 292.892 94.3733 292.799 92.32V89.52C291.212 92.04 289.486 94.5133 287.619 96.94C285.752 99.2733 283.746 101.233 281.599 102.82C279.546 104.407 277.352 105.2 275.019 105.2ZM341.996 108.84C337.142 108.84 333.129 107.3 329.956 104.22C326.876 101.233 325.336 96.6133 325.336 90.36C325.336 85.7867 326.222 81.3067 327.996 76.92C329.769 72.5333 332.149 68.6133 335.136 65.16C338.122 61.6133 341.436 58.8133 345.076 56.76C348.809 54.7067 352.589 53.68 356.416 53.68C360.336 53.68 363.136 54.66 364.816 56.62C366.589 58.58 367.476 60.8667 367.476 63.48C367.476 66.0933 366.822 68.66 365.516 71.18C364.302 73.6067 362.622 74.82 360.476 74.82C358.702 74.82 357.256 73.9333 356.136 72.16C357.069 71.5067 358.049 70.2933 359.076 68.52C360.102 66.7467 360.616 64.46 360.616 61.66C360.616 60.0733 359.729 59.28 357.956 59.28C355.622 59.28 353.149 60.3533 350.536 62.5C348.016 64.5533 345.636 67.26 343.396 70.62C341.249 73.8867 339.476 77.3867 338.076 81.12C336.769 84.76 336.116 88.12 336.116 91.2C336.116 93.8133 336.769 96.24 338.076 98.48C339.476 100.627 342.136 101.7 346.056 101.7C349.602 101.7 353.289 100.673 357.116 98.62C360.942 96.5667 364.536 93.72 367.896 90.08C371.256 86.3467 373.962 81.9133 376.016 76.78L378.816 79.3C376.576 84.9933 373.449 90.08 369.436 94.56C365.516 98.9467 361.129 102.4 356.276 104.92C351.516 107.533 346.756 108.84 341.996 108.84ZM417.177 106.32C414.284 106.32 411.764 105.387 409.617 103.52C407.47 101.653 405.744 99.32 404.437 96.52C403.13 93.72 402.15 90.8733 401.497 87.98C400.844 84.9933 400.517 82.4267 400.517 80.28C401.824 80 403.457 79.58 405.417 79.02C407.377 78.46 409.384 77.7133 411.437 76.78C413.49 75.7533 415.17 74.54 416.477 73.14C417.877 71.6467 418.577 69.8733 418.577 67.82C418.577 66.14 418.017 64.7867 416.897 63.76C415.87 62.7333 414.377 62.22 412.417 62.22C409.804 62.22 407.33 63.1067 404.997 64.88C402.664 66.56 400.47 68.8 398.417 71.6C396.457 74.4 394.637 77.4333 392.957 80.7C391.37 83.9667 389.924 87.14 388.617 90.22C387.404 93.3 386.377 95.96 385.537 98.2C384.51 101 383.53 102.867 382.597 103.8C381.664 104.827 380.31 105.34 378.537 105.34C377.884 105.34 377.09 105.153 376.157 104.78C375.317 104.407 374.57 103.473 373.917 101.98C373.357 100.487 373.077 98.1067 373.077 94.84C373.077 89.1467 373.87 82.8933 375.457 76.08C377.044 69.2667 379.144 62.36 381.757 55.36C384.464 48.2667 387.404 41.5 390.577 35.06C393.75 28.62 396.97 22.8333 400.237 17.7C403.504 12.5667 406.537 8.50666 409.337 5.51999C412.23 2.53333 414.61 1.03999 416.477 1.03999C418.064 1.03999 419.37 2.01999 420.397 3.98C421.517 5.84666 422.077 8.27333 422.077 11.26C422.077 14.4333 421.377 17.98 419.977 21.9C418.577 25.7267 416.57 29.6467 413.957 33.66C411.437 37.58 408.404 41.3133 404.857 44.86C401.31 48.4067 397.39 51.44 393.097 53.96C390.484 60.0267 388.477 66.0467 387.077 72.02C385.677 77.9 384.79 83.1267 384.417 87.7C386.097 83.8733 388.01 79.9533 390.157 75.94C392.304 71.9267 394.684 68.1933 397.297 64.74C399.91 61.1933 402.71 58.3467 405.697 56.2C408.777 54.0533 412.044 52.98 415.497 52.98C419.23 52.98 422.497 54.2867 425.297 56.9C428.097 59.5133 429.497 62.78 429.497 66.7C429.497 69.5 428.75 71.9267 427.257 73.98C425.764 76.0333 423.897 77.76 421.657 79.16C419.51 80.4667 417.317 81.4467 415.077 82.1C412.837 82.7533 410.924 83.1267 409.337 83.22C409.71 84.9 410.27 87.0467 411.017 89.66C411.857 92.2733 413.024 94.6067 414.517 96.66C416.01 98.62 417.97 99.6 420.397 99.6C422.73 99.6 425.11 98.5267 427.537 96.38C430.057 94.2333 432.484 91.3867 434.817 87.84C437.244 84.2933 439.39 80.3733 441.257 76.08L443.217 78.46C441.63 83.1267 439.437 87.6067 436.637 91.9C433.93 96.1933 430.897 99.6467 427.537 102.26C424.177 104.967 420.724 106.32 417.177 106.32ZM397.157 44.44C399.677 42.2 402.337 39.4467 405.137 36.18C407.937 32.82 410.317 29.2733 412.277 25.54C414.33 21.7133 415.404 18.0733 415.497 14.62V14.2C414.564 14.5733 413.07 16.2067 411.017 19.1C409.057 21.9 406.864 25.4933 404.437 29.88C402.01 34.2667 399.584 39.12 397.157 44.44ZM453.845 108.14C449.178 108.14 445.398 107.16 442.505 105.2C439.705 103.333 437.698 100.953 436.485 98.06C435.272 95.0733 434.665 92.04 434.665 88.96C434.665 86.2533 435.038 84.1533 435.785 82.66C436.532 81.1667 437.465 80.0933 438.585 79.44C439.705 78.6933 440.732 78.1333 441.665 77.76C442.692 77.3867 443.438 76.9667 443.905 76.5C446.238 74.0733 448.618 71.2733 451.045 68.1C453.565 64.8333 455.712 61.24 457.485 57.32V55.92C457.485 52.1867 458.092 49.5733 459.305 48.08C460.612 46.4933 462.105 45.7 463.785 45.7C464.905 45.7 465.698 45.98 466.165 46.54C466.725 47.1 467.052 47.7533 467.145 48.5C467.145 49.06 467.005 49.7133 466.725 50.46C466.538 51.2067 466.445 52.2333 466.445 53.54C466.445 56.34 467.098 59.56 468.405 63.2C469.805 66.7467 471.158 70.5267 472.465 74.54C473.865 78.5533 474.565 82.66 474.565 86.86C474.565 87.98 474.518 89.0067 474.425 89.94C474.332 90.8733 474.192 91.76 474.005 92.6C476.898 91.8533 479.745 90.2667 482.545 87.84C485.345 85.32 488.005 81.6333 490.525 76.78L492.205 78.04C490.432 83.36 487.865 87.6533 484.505 90.92C481.145 94.0933 477.225 96.0533 472.745 96.8C471.252 100.627 468.778 103.473 465.325 105.34C461.965 107.207 458.138 108.14 453.845 108.14ZM462.945 92.32C463.132 91.6667 463.225 90.92 463.225 90.08C463.318 89.1467 463.365 88.4467 463.365 87.98C463.272 83.78 462.712 79.6267 461.685 75.52C460.658 71.4133 459.632 67.2133 458.605 62.92C456.925 65.8133 454.965 68.94 452.725 72.3C450.485 75.66 448.385 78.3667 446.425 80.42C447.918 82.94 450.112 85.32 453.005 87.56C455.898 89.8 459.212 91.3867 462.945 92.32ZM452.865 101.98C454.732 101.98 456.458 101.513 458.045 100.58C459.632 99.6467 460.892 98.2933 461.825 96.52C457.998 95.68 454.545 94.1867 451.465 92.04C448.385 89.8933 446.005 87.7 444.325 85.46C443.018 85.74 442.365 87 442.365 89.24C442.365 92.32 443.252 95.2133 445.025 97.92C446.798 100.627 449.412 101.98 452.865 101.98Z" fill="black"/>
</svg>
