<svg version="1.1" viewBox="0.0 0.0 960.0 540.0" fill="none" stroke="none" stroke-linecap="square" stroke-miterlimit="10" xmlns:xlink="http://www.w3.org/1999/xlink" xmlns="http://www.w3.org/2000/svg"><clipPath id="p.0"><path d="m0 0l960.0 0l0 540.0l-960.0 0l0 -540.0z" clip-rule="nonzero"/></clipPath><g clip-path="url(#p.0)"><path fill="#ffffff" d="m0 0l960.0 0l0 540.0l-960.0 0z" fill-rule="evenodd"/><path fill="#000000" fill-opacity="0.0" d="m74.58268 163.37007l810.8346 0l0 213.25984l-810.8346 0z" fill-rule="evenodd"/><path fill="#000000" d="m147.00687 330.90494q-2.40625 0 -6.25 -0.71875q-3.84375 -0.71875 -7.796875 -2.765625q-3.953125 -2.03125 -6.5937424 -6.359375q-2.640625 -4.3125 -2.640625 -11.515625q0 -6.0 2.390625 -15.71875q2.4062424 -9.71875 8.156242 -28.4375q4.328125 -14.15625 8.53125 -27.953125q4.203125 -13.8125 6.953125 -28.6875q2.765625 -14.875 2.765625 -31.671875q0 -9.84375 -1.203125 -16.5625q-1.203125 -6.71875 -4.4375 -10.203125q-3.234375 -3.484375 -9.0 -3.484375q-5.765625 0 -10.093742 3.125q-4.3125 3.125 -7.1875 8.28125q-2.875 5.15625 -4.328125 11.40625q-1.4375 6.234375 -1.4375 12.46875q0 10.5625 3.609375 17.515625q-11.765625 0 -17.046875 -5.515625q-5.28125 -5.515625 -5.28125 -13.671875q0 -7.203125 3.59375 -14.875q3.609375 -7.6875 9.96875 -14.046875q6.359375 -6.359375 14.75 -10.3125q8.406242 -3.96875 18.015617 -3.96875q16.3125 0 24.828125 12.0q8.53125 12.0 8.53125 34.078125q0 16.5625 -4.453125 34.4375q-4.4375 17.875 -11.15625 39.0q-2.390625 7.6875 -5.640625 16.921875q-3.234375 9.234375 -5.765625 18.953125q-2.515625 9.71875 -2.515625 19.328125q0 4.5625 1.078125 6.359375q1.09375 1.796875 4.203125 1.796875q6.484375 0 13.796875 -5.515625q7.328125 -5.515625 14.765625 -14.875q7.4375 -9.375 14.28125 -20.890625q6.84375 -11.515625 12.59375 -23.625q5.765625 -12.125 9.609375 -23.046875q3.84375 -10.921875 5.046875 -19.078125q9.109375 0 14.140625 5.046875q5.046875 5.03125 5.046875 9.59375q0 2.390625 -2.046875 8.15625q-2.03125 5.75 -6.828125 17.03125q-3.84375 9.125 -7.921875 19.328125q-4.078125 10.203125 -6.84375 20.15625q-2.75 9.953125 -2.75 18.59375q0 4.8125 1.3125 6.96875q1.328125 2.15625 4.921875 2.15625q6.71875 0 15.46875 -6.609375q8.765625 -6.59375 18.125 -17.984375q9.375 -11.40625 18.25 -25.6875q8.875 -14.28125 16.078125 -29.640625q7.203125 -15.359375 11.390625 -30.234375q4.203125 -14.875 4.203125 -27.125q0 -13.203125 -4.6875 -18.71875q-4.671875 -5.515625 -11.625 -7.921875q4.3125 -6.953125 9.234375 -10.1875q4.921875 -3.25 8.765625 -3.25q5.515625 0 11.390625 7.078125q5.890625 7.078125 5.890625 22.203125q0 12.71875 -4.921875 29.28125q-4.921875 16.5625 -13.453125 34.4375q-8.515625 17.875 -19.4375 34.796875q-10.90625 16.921875 -23.265625 30.609375q-12.359375 13.671875 -24.84375 21.703125q-12.484375 8.046875 -23.765625 8.046875q-6.234375 0 -11.15625 -2.515625q-4.921875 -2.515625 -7.6875 -7.203125q-2.75 -4.671875 -2.75 -10.921875q0 -2.875 0.71875 -5.984375q0.71875 -3.125 1.671875 -6.25q-11.75 14.875 -23.640625 23.875q-11.875 9.0 -23.625 9.0zm191.99689 -10.3125q-15.359375 0 -23.640625 -8.28125q-8.28125 -8.28125 -8.28125 -20.765625q0 -10.5625 5.390625 -22.4375q5.40625 -11.875 14.515625 -22.3125q9.125 -10.453125 20.171875 -16.921875q11.046875 -6.484375 22.078125 -6.484375q6.234375 0 11.875 3.25q5.640625 3.234375 5.640625 12.828125q0 9.125 -5.28125 17.046875q-5.265625 7.921875 -14.15625 14.15625q-8.875 6.234375 -19.5625 10.203125q-10.671875 3.953125 -21.46875 5.15625q-0.25 0.953125 -0.375 2.046875q-0.109375 1.078125 -0.109375 3.46875q0 1.203125 0.359375 4.203125q0.359375 3.0 2.03125 6.359375q1.6875 3.359375 5.53125 5.765625q3.84375 2.390625 10.5625 2.390625q10.078125 0 20.265625 -5.640625q10.203125 -5.640625 19.203125 -15.0q9.0 -9.359375 15.0 -20.875l4.8125 3.84375q-6.484375 14.390625 -16.6875 25.203125q-10.203125 10.796875 -22.5625 16.796875q-12.359375 6.0 -25.3125 6.0zm-10.078125 -43.4375q6.234375 -0.71875 13.90625 -4.3125q7.6875 -3.609375 14.765625 -9.125q7.078125 -5.53125 11.640625 -12.125q4.5625 -6.609375 4.5625 -13.328125q0 -2.640625 -0.96875 -3.59375q-0.953125 -0.953125 -3.109375 -0.953125q-5.515625 0 -11.515625 3.953125q-6.0 3.953125 -11.765625 10.3125q-5.765625 6.359375 -10.328125 14.046875q-4.546875 7.6875 -7.1875 15.125zm89.2775 50.390625q-13.6875 0 -20.765625 -8.515625q-7.078125 -8.515625 -7.078125 -23.40625q0 -11.75 4.078125 -27.828125q4.078125 -16.078125 10.796875 -33.71875q6.71875 -17.640625 15.0 -34.5625q8.28125 -16.921875 16.921875 -30.71875q8.640625 -13.8125 16.3125 -21.96875q7.6875 -8.15625 13.21875 -8.15625q4.796875 0 7.1875 5.53125q2.40625 5.515625 2.640625 11.03125q0 6.71875 -2.875 16.328125q-2.875 9.59375 -8.15625 20.390625q-5.28125 10.796875 -12.25 21.359375q-6.953125 10.5625 -15.234375 19.203125q-8.28125 8.640625 -17.15625 13.671875q-1.6875 3.125 -4.203125 10.8125q-2.515625 7.671875 -4.5625 17.515625q-2.03125 9.828125 -2.03125 19.671875q0 9.609375 2.75 16.4375q2.765625 6.84375 9.71875 6.84375q6.25 0 13.4375 -5.765625q7.203125 -5.75 11.765625 -13.90625q-8.875 -4.8125 -13.4375 -13.4375q-4.5625 -8.640625 -4.5625 -18.25q0 -11.765625 6.359375 -18.953125q6.359375 -7.203125 15.484375 -7.203125q7.671875 0 12.703125 5.890625q5.046875 5.875 5.046875 18.109375q0 6.953125 -1.796875 14.765625q-1.796875 7.796875 -5.390625 15.46875q1.1875 0 2.03125 0.125q0.84375 0.125 2.28125 0.125q8.40625 0 14.40625 -4.5625q6.0 -4.5625 10.078125 -10.796875q4.078125 -6.25 6.484375 -11.28125l3.59375 5.03125q-6.0 14.15625 -14.765625 21.609375q-8.75 7.4375 -22.921875 7.4375q-1.1875 0 -2.515625 0q-1.3125 0 -2.515625 -0.25q-6.71875 10.8125 -16.6875 18.359375q-9.953125 7.5625 -23.390625 7.5625zm33.59375 -37.671875q2.15625 -4.796875 3.234375 -9.71875q1.09375 -4.921875 1.09375 -10.6875q0 -8.640625 -2.046875 -12.71875q-2.03125 -4.078125 -4.921875 -4.078125q-3.109375 0 -5.390625 4.328125q-2.28125 4.3125 -2.28125 10.3125q0 5.03125 2.15625 11.765625q2.15625 6.71875 8.15625 10.796875zm-26.390625 -58.796875q6.0 -5.53125 11.640625 -12.84375q5.640625 -7.328125 10.546875 -15.359375q4.921875 -8.046875 8.640625 -15.84375q3.71875 -7.796875 6.125 -14.15625q2.40625 -6.359375 2.875 -10.203125q0 -0.484375 0 -0.84375q0 -0.359375 0 -0.59375q-2.15625 0.71875 -7.078125 6.96875q-4.921875 6.234375 -11.046875 16.1875q-6.109375 9.953125 -11.875 22.078125q-5.75 12.125 -9.828125 24.609375zm83.98813 86.15625q-8.15625 0 -13.3125 -7.5625q-5.15625 -7.5625 -5.15625 -17.40625q0 -6.71875 2.15625 -15.828125q2.15625 -9.125 5.640625 -17.765625q3.484375 -8.640625 7.203125 -14.390625q3.71875 -5.765625 6.8281555 -5.765625q1.6875 0 5.15625 1.796875q3.484375 1.796875 6.125 4.4375q-2.640625 3.84375 -6.359375 11.765625q-3.71875 7.921875 -6.5937805 17.046875q-2.875 9.109375 -2.875 16.546875q0 0.96875 0.359375 4.5625q0.359375 3.59375 1.796875 6.71875q1.4375 3.125 5.0312805 3.125q4.078125 0 8.765625 -4.4375q4.6875 -4.453125 9.59375 -11.53125q4.921875 -7.078125 9.59375 -15.234375q4.6875 -8.15625 8.40625 -15.828125q3.71875 -7.6875 6.125 -12.96875q2.15625 0.234375 5.640625 1.203125q3.484375 0.953125 6.125 2.515625q2.640625 1.5625 2.640625 4.4375q0 0.71875 -2.28125 5.890625q-2.28125 5.15625 -5.28125 12.359375q-3.0 7.1875 -5.28125 14.75q-2.28125 7.5625 -2.28125 13.3125q0 3.359375 1.3125 5.890625q1.328125 2.515625 5.171875 2.515625q5.03125 0 11.984375 -4.5625q6.96875 -4.5625 14.40625 -13.203125q7.4375 -8.640625 13.203125 -20.640625l3.609375 2.890625q-5.28125 12.953125 -13.6875 23.28125q-8.40625 10.3125 -18.0 16.1875q-9.59375 5.890625 -18.71875 5.890625q-6.96875 0 -10.453125 -3.25q-3.46875 -3.234375 -4.671875 -8.390625q-1.203125 -5.15625 -1.4375 -10.4375q0 -1.203125 0 -2.515625q0 -1.328125 0 -2.296875q-4.078125 6.484375 -8.875 12.609375q-4.796875 6.125 -10.203125 10.203125q-5.40625 4.078125 -11.4062805 4.078125zm114.73068 6.234375q-12.484375 0 -20.53125 -7.796875q-8.03125 -7.796875 -8.03125 -23.875q0 -11.765625 4.5625 -23.046875q4.5625 -11.28125 12.234375 -20.28125q7.6875 -9.0 17.15625 -14.28125q9.484375 -5.28125 19.328125 -5.28125q10.078125 0 14.515625 5.046875q4.4375 5.03125 4.4375 11.765625q0 6.71875 -3.25 13.078125q-3.234375 6.359375 -8.75 6.359375q-4.5625 0 -7.4375 -4.5625q2.40625 -1.6875 5.046875 -6.234375q2.640625 -4.5625 2.640625 -11.765625q0 -1.921875 -0.96875 -3.0q-0.953125 -1.078125 -3.59375 -1.078125q-6.0 0 -12.609375 5.40625q-6.59375 5.390625 -12.234375 13.90625q-5.640625 8.515625 -9.125 18.0q-3.46875 9.484375 -3.46875 17.40625q0 6.71875 3.46875 12.359375q3.484375 5.640625 13.5625 5.640625q9.125 0 18.953125 -5.28125q9.84375 -5.28125 18.484375 -14.75q8.640625 -9.484375 13.921875 -22.6875l4.796875 4.3125q-5.75 14.640625 -15.953125 26.046875q-10.203125 11.390625 -22.5625 17.984375q-12.359375 6.609375 -24.59375 6.609375zm128.87311 -4.3125q-7.4375 0 -12.96875 -4.8125q-5.515625 -4.796875 -8.875 -11.984375q-3.359375 -7.203125 -5.046875 -14.765625q-1.671875 -7.5625 -1.671875 -13.078125q3.359375 -0.71875 8.390625 -2.15625q5.046875 -1.453125 10.328125 -3.96875q5.28125 -2.515625 8.765625 -6.234375q3.484375 -3.71875 3.484375 -9.0q0 -4.328125 -2.765625 -6.96875q-2.765625 -2.640625 -7.796875 -2.640625q-6.71875 0 -12.71875 4.453125q-6.0 4.4375 -11.171875 11.640625q-5.15625 7.1875 -9.359375 15.59375q-4.1875 8.390625 -7.4375 16.3125q-3.234375 7.921875 -5.390625 13.6875q-2.640625 7.203125 -5.046875 9.71875q-2.390625 2.515625 -6.953125 2.515625q-1.6875 0 -3.96875 -0.96875q-2.28125 -0.953125 -3.84375 -4.796875q-1.546875 -3.828125 -1.546875 -12.234375q0 -14.640625 4.078125 -32.15625q4.078125 -17.515625 10.90625 -35.640625q6.84375 -18.125 15.0 -34.671875q8.171875 -16.5625 16.5625 -29.765625q8.40625 -13.203125 15.71875 -20.875q7.328125 -7.6875 12.125 -7.6875q4.078125 0 6.84375 4.921875q2.765625 4.921875 2.765625 12.59375q0 8.15625 -3.609375 18.125q-3.59375 9.953125 -10.203125 20.15625q-6.59375 10.203125 -15.71875 19.328125q-9.109375 9.109375 -20.15625 15.59375q-6.71875 15.59375 -10.328125 30.84375q-3.59375 15.234375 -4.546875 27.0q4.3125 -9.84375 9.828125 -20.15625q5.53125 -10.328125 12.25 -19.328125q6.71875 -9.0 14.515625 -14.515625q7.796875 -5.515625 16.6875 -5.515625q9.59375 0 16.796875 6.71875q7.203125 6.71875 7.203125 16.796875q0 7.203125 -3.84375 12.484375q-3.84375 5.265625 -9.484375 8.75q-5.640625 3.484375 -11.40625 5.171875q-5.75 1.671875 -9.828125 1.90625q0.71875 3.125 2.03125 7.921875q1.328125 4.796875 3.484375 9.359375q2.15625 4.5625 5.515625 7.6875q3.375 3.109375 7.921875 3.109375q6.0 0 12.359375 -5.515625q6.359375 -5.515625 12.484375 -14.640625q6.125 -9.125 10.921875 -20.15625l3.359375 4.078125q-4.078125 12.0 -11.15625 23.046875q-7.078125 11.03125 -15.71875 17.875q-8.640625 6.84375 -17.765625 6.84375zm-34.3125 -106.078125q6.46875 -5.765625 13.671875 -14.28125q7.203125 -8.53125 12.359375 -18.25q5.15625 -9.71875 5.40625 -18.59375q0 -0.234375 0 -0.359375q0 -0.125 0 -0.359375q-2.40625 0.953125 -7.5625 8.28125q-5.15625 7.3125 -11.40625 18.59375q-6.234375 11.28125 -12.46875 24.96875zm97.192505 109.1875q-12.0 0 -19.328125 -4.921875q-7.3125 -4.90625 -10.421875 -12.46875q-3.125 -7.5625 -3.125 -15.484375q0 -6.953125 1.921875 -10.796875q1.921875 -3.84375 4.796875 -5.640625q2.875 -1.796875 5.390625 -2.75q2.53125 -0.96875 3.734375 -2.171875q6.0 -6.234375 12.359375 -14.515625q6.359375 -8.28125 10.90625 -18.359375l0 -2.40625q0 -9.59375 3.234375 -13.546875q3.25 -3.96875 7.578125 -3.96875q2.875 0 4.1875 1.4375q1.328125 1.4375 1.5625 3.359375q0 1.4375 -0.59375 3.359375q-0.59375 1.921875 -0.59375 5.28125q0 7.203125 3.46875 16.4375q3.484375 9.234375 6.953125 19.5625q3.484375 10.3125 3.484375 21.125q0 2.875 -0.234375 5.28125q-0.234375 2.390625 -0.71875 4.546875q7.4375 -1.90625 14.640625 -8.265625q7.203125 -6.375 13.671875 -18.84375l2.890625 2.15625q-4.5625 13.671875 -13.203125 21.953125q-8.640625 8.28125 -20.15625 10.203125q-3.84375 9.84375 -12.609375 14.640625q-8.75 4.796875 -19.796875 4.796875zm-1.671875 -10.546875q4.796875 0 8.875 -2.40625q4.078125 -2.40625 6.484375 -6.96875q-9.84375 -2.15625 -17.765625 -7.671875q-7.921875 -5.515625 -12.234375 -11.28125q-3.359375 0.71875 -3.359375 6.484375q0 7.921875 4.546875 14.890625q4.5625 6.953125 13.453125 6.953125zm17.28125 -16.5625q0.46875 -1.6875 0.59375 -3.96875q0.125 -2.28125 0.125 -3.46875q-0.25 -10.8125 -2.890625 -21.359375q-2.640625 -10.5625 -5.28125 -21.609375q-4.3125 7.4375 -10.078125 16.078125q-5.75 8.640625 -10.796875 13.921875q3.84375 6.484375 11.28125 12.25q7.4375 5.75 17.046875 8.15625z" fill-rule="nonzero"/></g></svg>